<?xml version="1.0" ?><!DOCTYPE svg  PUBLIC '-//W3C//DTD SVG 1.1//EN'  'http://www.w3.org/Graphics/SVG/1.1/DTD/svg11.dtd'><svg height="100%" style="fill-rule:evenodd;clip-rule:evenodd;stroke-linejoin:round;stroke-miterlimit:1.41421;" version="1.1" viewBox="0 0 24 24" width="100%" xml:space="preserve" xmlns="http://www.w3.org/2000/svg" xmlns:serif="http://www.serif.com/" xmlns:xlink="http://www.w3.org/1999/xlink"><rect height="24" id="Artboard14" style="fill:none;" width="24" x="0" y="0"/><g><circle cx="12" cy="12" r="10" style="fill:#bd081c;"/><path d="M11.531,14.656c0.008,1.68 2.13,1.542 3.047,0.703c1.762,-1.61 2.09,-4.435 0.569,-6.267c-1.521,-1.832 -4.247,-2.081 -6.084,-0.556c-1.541,1.279 -1.97,3.404 -1.17,5.137c0.23,0.488 0.272,1.043 0.121,1.561c0.027,0.008 0.027,0.008 0.027,0.008c-0.028,0.093 -0.093,0.171 -0.181,0.213c-0.088,0.042 -0.189,0.044 -0.279,0.006c-1.032,-0.535 -1.799,-1.974 -1.799,-3.59c0,-3.347 2.776,-6.066 6.195,-6.066c3.419,0 6.194,2.719 6.194,6.066c0,3.348 -2.434,5.973 -5.546,5.676c-0.971,-0.093 -1.536,-0.598 -1.781,-1.163c-0.287,1.094 -0.631,2.328 -0.875,2.96c-0.264,0.682 -0.636,1.3 -0.951,1.756c-0.094,0.136 -0.265,0.196 -0.424,0.15c-0.159,-0.046 -0.271,-0.189 -0.279,-0.354c-0.027,-0.557 -0.025,-1.268 0.091,-1.923c0.157,-0.883 0.577,-2.812 0.869,-4.131c0.156,-0.721 0.183,-1.465 0.079,-2.196c-0.096,-0.457 -0.072,-1.1 0.224,-1.896c0.643,-1.727 2.911,-1.285 2.734,0.542c-0.078,0.816 -0.787,2.006 -0.781,3.364Z" style="fill:#fff;"/></g></svg>